<?xml version="1.0" encoding="UTF-8"?><svg id="a" xmlns="http://www.w3.org/2000/svg" viewBox="0 0 683.24 127.87"><defs><style>.b{fill:#004438;}</style></defs><path class="b" d="M326.33,127.86c-17.78,.16-28.47-9.55-28.47-9.55l3.02-16.53,6.36-.06c.59,4.23,5.1,15.71,18.65,15.59,6.35-.06,11.77-3.55,13.6-8.54,3.33-9.05-6.92-17.93-14.77-25.83-8.95-9.01-13.66-14.89-13.75-22.8-.11-9.93,10.32-23.21,33.58-23.41,13.4-.12,22.01,5.94,22.01,5.94l-2.56,13.94-6.23,1.5c-1.31-5.39-5.21-11.1-15.2-11.01-8.13,.07-11.47,4.51-11.47,8.41,0,4.84,6.33,10.48,11.98,16.22,8.21,8.34,18.59,16.7,18.59,27.4,0,16.85-14.62,28.53-35.33,28.71Z"/><path class="b" d="M386.41,126.09l12.79-72.42h-16.36l2.34-13.23h16.32l.37-2.11c3.25-14.69,15-38.32,42.37-38.32,8.06,0,15.13,2.15,18.09,3.84l-2.38,16.27h-7.31c-.62-4.13-2.7-10.18-10.41-10.18-10.31,0-15.83,9.26-19.14,28.39l-.36,2.11h25.31l-1.36,7.72-25.84,4.75-12.9,73.19h-21.52Z"/><path class="b" d="M558.48,127.64c-21.62,0-37.21-16.15-36.06-39.74,1.28-26.15,23.37-47.53,50.12-49.83,16.44-1.41,26.49,7.17,26.52,18.71,.07,26.33-55.13,30.18-55.13,30.18,0,0-2.24,12.97,6.84,22.05,11.99,11.99,32.57,1.96,37.91-3.38l-1.69,9.59s-11.42,12.43-28.52,12.43Zm15.55-79.68c-20.14,0-28.24,27.59-28.24,27.59,0,0,37.31,0,37.26-19.16,0-3.35-2.4-8.43-9.02-8.43Z"/><path class="b" d="M642.66,127.64c-21.62,0-37.21-16.15-36.06-39.74,1.28-26.15,23.37-47.53,50.12-49.83,16.44-1.41,26.49,7.17,26.52,18.71,.07,26.33-55.13,30.18-55.13,30.18,0,0-2.24,12.97,6.84,22.05,11.99,11.99,32.57,1.96,37.91-3.38l-1.69,9.59s-11.42,12.43-28.52,12.43Zm15.55-79.68c-20.14,0-28.24,27.59-28.24,27.59,0,0,37.31,0,37.26-19.16,0-3.35-2.4-8.43-9.02-8.43Z"/><path class="b" d="M496.47,45.51c-1.76,1.65-9.53,9.53-9.53,9.53l2.94-16.22-26.29,1.65c1.07,1.57,3.93,4.78,2.87,10.15-.15,.78-11.51,64.9-13.45,75.48h21.17l8.71-48.57c1.23-7.52,4.9-17.45,16.44-20.79,10.42-3.01,17.29,2.69,17.29,2.69l3.82-21.15s-12.29-3.68-23.97,7.23Z"/><path class="b" d="M210.44,126.09c-2.66,0-4.68-2.4-4.23-5.02l9.14-52.84c.43-3.29,2.62-15.8-6.37-17.1-8.63-1.24-26.4,11.76-30.73,37.54l-6.59,37.41h-21.21c1.88-10.57,13.1-74.69,13.25-75.47,1.04-5.36-1.84-8.57-2.92-10.15l26.29-1.65-3.23,17.73s6.17-4.64,10.01-7.49c7.92-5.86,15.85-12.08,27.96-12.08,18.97,0,16.91,19.6,14.8,31.08l-8.59,48.42c-.64,3.93,.89,7.42,2.23,9.6h-19.82Z"/><path class="b" d="M103.87,121.07l9.14-52.84c.43-3.29,2.62-15.8-6.37-17.1-8.63-1.24-26.4,11.76-30.73,37.54l-6.59,37.41h-21.21c1.88-10.57,13.1-74.69,13.25-75.47,1.04-5.36-1.84-8.57-2.92-10.15l26.29-1.65-3.23,17.73s5.95-4.62,9.9-7.6c7.86-5.94,17.08-11.96,28.08-11.96,17.68,0,16.91,19.6,14.8,31.08l-8.59,48.42c-.64,3.93,.89,7.42,2.23,9.6h-19.82c-2.66,0-4.68-2.4-4.23-5.02Z"/><path class="b" d="M29.23,27.13c-6.02,0-10.93-4.9-10.95-10.92-.02-6.02,4.87-10.92,10.89-10.92s10.93,4.9,10.95,10.92c.02,6.02-4.87,10.92-10.89,10.92Z"/><path class="b" d="M24.35,126.09c-1.29-2.37-2.58-6.24-2.05-9.6l13.71-77.67-26.29,1.65c1.07,1.57,3.93,4.78,2.87,10.15C12.43,51.39,.07,121.07,.07,121.07c-.47,2.62,1.54,5.02,4.2,5.02H24.35Z"/><path class="b" d="M281.98,27.13c-6.02,0-10.93-4.9-10.95-10.92-.02-6.02,4.87-10.92,10.89-10.92s10.93,4.9,10.95,10.92c.02,6.02-4.87,10.92-10.89,10.92Z"/><path class="b" d="M277.5,126.09c-1.29-2.37-2.66-6.24-2.12-9.6l13.78-77.67-26.29,1.65c1.07,1.57,3.93,4.78,2.87,10.15-.15,.78-12.52,70.45-12.52,70.45-.47,2.62,1.54,5.02,4.2,5.02h20.08Z"/></svg>