<?xml version="1.0" encoding="utf-8"?>
<!-- Generator: Adobe Illustrator 27.0.0, SVG Export Plug-In . SVG Version: 6.00 Build 0)  -->
<svg version="1.1" id="Layer_1" xmlns="http://www.w3.org/2000/svg" xmlns:xlink="http://www.w3.org/1999/xlink" x="0px" y="0px"
	 viewBox="0 0 173 32.96" style="enable-background:new 0 0 173 32.96;" xml:space="preserve">
<style type="text/css">
	.st0{fill:#004438;}
</style>
<g>
	<path class="st0" d="M82.68,32.59c-4.45,0.04-7.12-2.39-7.12-2.39l0.76-4.13l1.59-0.01c0.15,1.06,1.27,3.93,4.66,3.9
		c1.59-0.01,2.94-0.89,3.4-2.13c0.83-2.26-1.73-4.48-3.69-6.46c-2.24-2.25-3.41-3.72-3.44-5.7c-0.03-2.48,2.58-5.8,8.4-5.85
		c3.35-0.03,5.5,1.49,5.5,1.49l-0.64,3.48l-1.56,0.38c-0.33-1.35-1.3-2.77-3.8-2.75c-2.03,0.02-2.87,1.13-2.87,2.1
		c0,1.21,1.58,2.62,2.99,4.05c2.05,2.09,4.65,4.18,4.65,6.85C91.51,29.63,87.86,32.55,82.68,32.59z"/>
	<path class="st0" d="M97.7,32.15l3.2-18.11h-4.09l0.58-3.31h4.08l0.09-0.53c0.81-3.67,3.75-9.58,10.59-9.58
		c2.02,0,3.78,0.54,4.52,0.96l-0.6,4.07h-1.83c-0.16-1.03-0.67-2.54-2.6-2.54c-2.58,0-3.96,2.32-4.79,7.1l-0.09,0.53h6.33
		l-0.34,1.93l-6.46,1.19l-3.23,18.3H97.7z"/>
	<path class="st0" d="M140.71,32.54c-5.4,0-9.3-4.04-9.01-9.94c0.32-6.54,5.84-11.88,12.53-12.46c4.11-0.35,6.62,1.79,6.63,4.68
		c0.02,6.58-13.78,7.54-13.78,7.54s-0.56,3.24,1.71,5.51c3,3,8.14,0.49,9.48-0.85l-0.42,2.4C147.84,29.43,144.99,32.54,140.71,32.54
		z M144.6,12.62c-5.04,0-7.06,6.9-7.06,6.9s9.33,0,9.31-4.79C146.85,13.89,146.26,12.62,144.6,12.62z"/>
	<path class="st0" d="M161.76,32.54c-5.4,0-9.3-4.04-9.01-9.94c0.32-6.54,5.84-11.88,12.53-12.46c4.11-0.35,6.62,1.79,6.63,4.68
		c0.02,6.58-13.78,7.54-13.78,7.54s-0.56,3.24,1.71,5.51c3,3,8.14,0.49,9.48-0.85l-0.42,2.4C168.89,29.43,166.03,32.54,161.76,32.54
		z M165.65,12.62c-5.04,0-7.06,6.9-7.06,6.9s9.33,0,9.31-4.79C167.9,13.89,167.3,12.62,165.65,12.62z"/>
	<g>
		<path class="st0" d="M125.21,12c-0.44,0.41-2.38,2.38-2.38,2.38l0.74-4.06l-6.57,0.41c0.27,0.39,0.98,1.2,0.72,2.54
			c-0.04,0.2-2.88,16.23-3.36,18.87l5.29,0l2.18-12.14c0.31-1.88,1.22-4.36,4.11-5.2c2.61-0.75,4.32,0.67,4.32,0.67l0.95-5.29
			C131.21,10.2,128.13,9.28,125.21,12z"/>
	</g>
	<path class="st0" d="M53.71,32.15c-0.66,0-1.17-0.6-1.06-1.25l2.28-13.21c0.11-0.82,0.65-3.95-1.59-4.27
		c-2.16-0.31-6.6,2.94-7.68,9.39l-1.65,9.35h-5.3c0.47-2.64,3.27-18.67,3.31-18.87c0.26-1.34-0.46-2.14-0.73-2.54l6.57-0.41
		l-0.81,4.43c0,0,1.54-1.16,2.5-1.87c1.98-1.47,3.96-3.02,6.99-3.02c4.74,0,4.23,4.9,3.7,7.77L58.1,29.75
		c-0.16,0.98,0.22,1.85,0.56,2.4H53.71z"/>
	<path class="st0" d="M27.06,30.89l2.28-13.21c0.11-0.82,0.65-3.95-1.59-4.27c-2.16-0.31-6.6,2.94-7.68,9.39l-1.65,9.35h-5.3
		c0.47-2.64,3.27-18.67,3.31-18.87c0.26-1.34-0.46-2.14-0.73-2.54l6.57-0.41l-0.81,4.43c0,0,1.49-1.16,2.47-1.9
		c1.97-1.49,4.27-2.99,7.02-2.99c4.42,0,4.23,4.9,3.7,7.77l-2.15,12.11c-0.16,0.98,0.22,1.85,0.56,2.4h-4.95
		C27.45,32.15,26.95,31.55,27.06,30.89z"/>
	<path class="st0" d="M8.4,7.41c-1.51,0-2.73-1.22-2.74-2.73c0-1.51,1.22-2.73,2.72-2.73c1.51,0,2.73,1.22,2.74,2.73
		C11.13,6.19,9.91,7.41,8.4,7.41z"/>
	<path class="st0" d="M7.18,32.15c-0.32-0.59-0.65-1.56-0.51-2.4l3.43-19.42l-6.57,0.41c0.27,0.39,0.98,1.2,0.72,2.54
		c-0.04,0.2-3.13,17.61-3.13,17.61c-0.12,0.65,0.38,1.25,1.05,1.25H7.18z"/>
	<path class="st0" d="M71.59,7.41c-1.51,0-2.73-1.22-2.74-2.73c0-1.51,1.22-2.73,2.72-2.73c1.51,0,2.73,1.22,2.74,2.73
		C74.32,6.19,73.09,7.41,71.59,7.41z"/>
	<path class="st0" d="M70.47,32.15c-0.32-0.59-0.66-1.56-0.53-2.4l3.45-19.42l-6.57,0.41c0.27,0.39,0.98,1.2,0.72,2.54
		c-0.04,0.2-3.13,17.61-3.13,17.61c-0.12,0.65,0.38,1.25,1.05,1.25H70.47z"/>
</g>
</svg>
